HIERARCHY
ROOT hip
{
  OFFSET 0 0 0
  CHANNELS 6 Xposition Yposition Zposition Zrotation Yrotation Xrotation
  JOINT abdomen
  {
    OFFSET 0 20.6881 -0.73152
    CHANNELS 3 Zrotation Xrotation Yrotation
    JOINT chest
    {
      OFFSET 0 11.7043 -0.48768
      CHANNELS 3 Zrotation Xrotation Yrotation
      JOINT neck
      {
        OFFSET 0 22.1894 -2.19456
        CHANNELS 3 Zrotation Xrotation Yrotation
        JOINT head
        {
          OFFSET -0.24384 7.07133 1.2192
          CHANNELS 3 Zrotation Xrotation Yrotation
          JOINT leftEye
          {
            OFFSET 4.14528 8.04674 8.04672
            CHANNELS 3 Zrotation Xrotation Yrotation
            End Site
            {
              OFFSET 1 0 0
            }
          }
          JOINT rightEye
          {
            OFFSET -3.6576 8.04674 8.04672
            CHANNELS 3 Zrotation Xrotation Yrotation
            End Site
            {
              OFFSET 1 0 0
            }
          }
        }
      }
      JOINT rCollar
      {
        OFFSET -2.68224 19.2634 -4.8768
        CHANNELS 3 Zrotation Xrotation Yrotation
        JOINT rShldr
        {
          OFFSET -8.77824 -1.95073 1.46304
          CHANNELS 3 Zrotation Xrotation Yrotation
          JOINT rForeArm
          {
            OFFSET -28.1742 -1.7115 0.48768
            CHANNELS 3 Zrotation Xrotation Yrotation
            JOINT rHand
            {
              OFFSET -22.5879 0.773209 7.07136
              CHANNELS 3 Zrotation Xrotation Yrotation
              JOINT rThumb1
              {
                OFFSET -1.2192 -0.487915 3.41376
                CHANNELS 3 Zrotation Xrotation Yrotation
                JOINT rThumb2
                {
                  OFFSET -3.37035 -0.52449 3.41376
                  CHANNELS 3 Zrotation Xrotation Yrotation
                  End Site
                  {
                    OFFSET -1.78271 -1.18214 1.43049
                  }
                }
              }
              JOINT rIndex1
              {
                OFFSET -7.75947 0.938293 5.60832
                CHANNELS 3 Zrotation Xrotation Yrotation
                JOINT rIndex2
                {
                  OFFSET -2.54057 -0.884171 1.56538
                  CHANNELS 3 Zrotation Xrotation Yrotation
                  End Site
                  {
                    OFFSET -1.62519 -0.234802 1.16502
                  }
                }
              }
              JOINT rMid1
              {
                OFFSET -8.24714 1.18213 3.41376
                CHANNELS 3 Zrotation Xrotation Yrotation
                JOINT rMid2
                {
                  OFFSET -3.10165 -0.590103 1.0647
                  CHANNELS 3 Zrotation Xrotation Yrotation
                  End Site
                  {
                    OFFSET -2.48547 -0.328903 0.83742
                  }
                }
              }
              JOINT rRing1
              {
                OFFSET -8.82822 0.546677 1.51678
                CHANNELS 3 Zrotation Xrotation Yrotation
                JOINT rRing2
                {
                  OFFSET -2.60934 -0.819778 -0.0198488
                  CHANNELS 3 Zrotation Xrotation Yrotation
                  End Site
                  {
                    OFFSET -2.33842 -0.294052 0.168128
                  }
                }
              }
              JOINT rPinky1
              {
                OFFSET -8.27202 -0.0477905 -0.4584
                CHANNELS 3 Zrotation Xrotation Yrotation
                JOINT rPinky2
                {
                  OFFSET -1.82734 -0.647385 -0.700984
                  CHANNELS 3 Zrotation Xrotation Yrotation
                  End Site
                  {
                    OFFSET -1.69225 -0.51767 -0.607171
                  }
                }
              }
            }
          }
        }
      }
      JOINT lCollar
      {
        OFFSET 2.68224 19.2634 -4.8768
        CHANNELS 3 Zrotation Xrotation Yrotation
        JOINT lShldr
        {
          OFFSET 8.77824 -1.95073 1.46304
          CHANNELS 3 Zrotation Xrotation Yrotation
          JOINT lForeArm
          {
            OFFSET 28.1742 -1.7115 0.48768
            CHANNELS 3 Zrotation Xrotation Yrotation
            JOINT lHand
            {
              OFFSET 22.5879 0.773209 7.07136
              CHANNELS 3 Zrotation Xrotation Yrotation
              JOINT lThumb1
              {
                OFFSET 1.2192 -0.487915 3.41376
                CHANNELS 3 Zrotation Xrotation Yrotation
                JOINT lThumb2
                {
                  OFFSET 3.37035 -0.52449 3.41376
                  CHANNELS 3 Zrotation Xrotation Yrotation
                  End Site
                  {
                    OFFSET 1.78271 -1.18214 1.43049
                  }
                }
              }
              JOINT lIndex1
              {
                OFFSET 7.75947 0.938293 5.60832
                CHANNELS 3 Zrotation Xrotation Yrotation
                JOINT lIndex2
                {
                  OFFSET 2.54057 -0.884171 1.56538
                  CHANNELS 3 Zrotation Xrotation Yrotation
                  End Site
                  {
                    OFFSET 1.62519 -0.234802 1.16502
                  }
                }
              }
              JOINT lMid1
              {
                OFFSET 8.24714 1.18213 3.41376
                CHANNELS 3 Zrotation Xrotation Yrotation
                JOINT lMid2
                {
                  OFFSET 3.10165 -0.590103 1.0647
                  CHANNELS 3 Zrotation Xrotation Yrotation
                  End Site
                  {
                    OFFSET 2.48547 -0.328903 0.83742
                  }
                }
              }
              JOINT lRing1
              {
                OFFSET 8.82822 0.546677 1.51678
                CHANNELS 3 Zrotation Xrotation Yrotation
                JOINT lRing2
                {
                  OFFSET 2.60934 -0.819778 -0.0198488
                  CHANNELS 3 Zrotation Xrotation Yrotation
                  End Site
                  {
                    OFFSET 2.33842 -0.294052 0.168128
                  }
                }
              }
              JOINT lPinky1
              {
                OFFSET 8.27202 -0.0477905 -0.4584
                CHANNELS 3 Zrotation Xrotation Yrotation
                JOINT lPinky2
                {
                  OFFSET 1.82734 -0.647385 -0.700984
                  CHANNELS 3 Zrotation Xrotation Yrotation
                  End Site
                  {
                    OFFSET 1.69225 -0.51767 -0.607171
                  }
                }
              }
            }
          }
        }
      }
    }
  }
  JOINT rButtock
  {
    OFFSET -8.77824 4.35084 1.2192
    CHANNELS 3 Zrotation Xrotation Yrotation
    JOINT rThigh
    {
      OFFSET 0 -1.70687 -2.19456
      CHANNELS 3 Zrotation Xrotation Yrotation
      JOINT rShin
      {
        OFFSET 0 -36.8199 0.73152
        CHANNELS 3 Zrotation Xrotation Yrotation
        JOINT rFoot
        {
          OFFSET 0.73152 -45.1104 -5.12064
          CHANNELS 3 Zrotation Xrotation Yrotation
          End Site
          {
            OFFSET -1.1221 -3.69964 12.103
          }
        }
      }
    }
  }
  JOINT lButtock
  {
    OFFSET 8.77824 4.35084 1.2192
    CHANNELS 3 Zrotation Xrotation Yrotation
    JOINT lThigh
    {
      OFFSET 0 -1.70687 -2.19456
      CHANNELS 3 Zrotation Xrotation Yrotation
      JOINT lShin
      {
        OFFSET 0 -36.8199 0.73152
        CHANNELS 3 Zrotation Xrotation Yrotation
        JOINT lFoot
        {
          OFFSET -0.73152 -45.1104 -5.12064
          CHANNELS 3 Zrotation Xrotation Yrotation
          End Site
          {
            OFFSET 1.1221 -3.69964 12.103
          }
        }
      }
    }
  }
}
MOTION
Frames:	4
Frame Time:	0.03333
-8.074399316683412 54.78970408439636 -89.96752556413412 -16.237468719482422 -27.1395206451416 14.078590393066406 9.688849449157715 10.103116035461426 3.9616477489471436 0.5749762654304504 -7.724794864654541 1.1780277490615845 -1.1073933839797974 11.18873119354248 5.901628017425537 6.111462593078613 -22.380388259887695 13.381268501281738 0.3263152241706848 0.31768500804901123 0.05406450480222702 -0.15783345699310303 0.078569196164608 -0.005749268922954798 0.18998515605926514 -0.2406262457370758 -0.08404998481273651 109.69095611572266 45.87089538574219 -58.87473678588867 -26.103729248046875 -45.58699035644531 95.01876831054688 -12.319662094116211 -66.19190216064453 -18.705493927001953 -0.12782083451747894 0.1006426215171814 -0.03232583776116371 -0.09769326448440552 -0.22546909749507904 -0.06401414424180984 -0.06847909837961197 0.0047943140380084515 0.000738073606044054 7.65102481842041 5.413880348205566 0.34366172552108765 -0.3018611967563629 -0.038934625685214996 0.06703280657529831 2.8712682723999023 0.8743407130241394 0.0711611732840538 -0.22284089028835297 -0.08310900628566742 0.04685496911406517 10.085227966308594 0.7990562915802002 0.18996939063072205 0.17147259414196014 -0.06307635456323624 0.12515179812908173 2.146322727203369 -0.7523241639137268 -0.3258281946182251 -0.02093336172401905 -0.08380211889743805 0.06360608339309692 -66.35211181640625 -20.270998001098633 -85.727294921875 7.968449115753174 -3.2563047409057617 -13.840649604797363 6.803291320800781 57.20783615112305 -12.744802474975586 0.12347856909036636 0.00789368525147438 0.10451565682888031 -0.09630333632230759 -0.08838426321744919 -0.026397405192255974 -0.07429865747690201 0.13450849056243896 0.07193206995725632 -7.924617290496826 5.7087578773498535 -0.15135562419891357 0.044306643307209015 0.059285178780555725 -0.10238087177276611 -3.022202253341675 0.9928790330886841 -0.3109736144542694 0.1403542011976242 -0.2745276689529419 0.16760611534118652 -10.269176483154297 0.8152058720588684 0.21676844358444214 -0.10702338814735413 0.137222558259964 -0.18933641910552979 -2.0449039936065674 -0.7279147505760193 0.11359001696109772 0.2131156325340271 0.05246643349528313 0.06632566452026367 -6.355734348297119 8.941271781921387 -5.961019515991211 0.004006757400929928 31.848623275756836 2.1241188049316406 -8.82306957244873 -14.965385437011719 -34.85784912109375 -0.11298525333404541 0.10364319384098053 -0.16775411367416382 78.5047378540039 -59.1629524230957 68.64231872558594 3.2141740322113037 75.19850158691406 -2.7197203636169434 -0.22417522966861725 -1.8264027833938599 -4.760002613067627
-8.513979567214847 54.83362078666687 -90.15657077543437 -16.340383529663086 -26.88604164123535 13.913557052612305 9.901180267333984 9.885824203491211 3.75006103515625 0.6184476017951965 -7.626096248626709 1.0830273628234863 -1.143498420715332 11.178680419921875 5.942582130432129 6.050307273864746 -22.295612335205078 13.256298065185547 0.3481094241142273 0.32188671827316284 0.03938247263431549 -0.17803381383419037 0.10290573537349701 0.0036198508460074663 0.16912932693958282 -0.22912393510341644 -0.08977625519037247 109.41254425048828 46.191219329833984 -58.921844482421875 -26.199771881103516 -45.36420822143555 94.60284423828125 -12.946550369262695 -66.7745590209961 -19.386032104492188 -0.13601766526699066 0.1080627515912056 -0.06849014759063721 -0.11374137550592422 -0.2363133579492569 -0.03054378740489483 -0.07461497187614441 0.0469132736325264 -0.004215563647449017 7.6695756912231445 5.3935465812683105 0.325191468000412 -0.27834588289260864 0.002355767646804452 0.054609935730695724 2.84767484664917 0.88451087474823 0.08058792352676392 -0.2241208255290985 -0.09396197646856308 0.0511513352394104 10.087014198303223 0.8169019818305969 0.14422808587551117 0.16849133372306824 -0.06813978403806686 0.14569604396820068 2.130077838897705 -0.7611913084983826 -0.31821319460868835 -0.022525811567902565 -0.08011441677808762 0.0416780486702919 -65.73116302490234 -19.957298278808594 -84.61539459228516 8.049736976623535 -3.2951674461364746 -13.945575714111328 6.652285099029541 56.938270568847656 -12.535791397094727 0.15458287298679352 -0.03318284824490547 0.11211373656988144 -0.09797082841396332 -0.06842855364084244 -0.03171246126294136 -0.052527233958244324 0.13060729205608368 0.05688708275556564 -7.921411514282227 5.724442958831787 -0.16392840445041656 0.06913278251886368 0.08149606734514236 -0.06145356968045235 -3.041679620742798 0.9806957840919495 -0.27594512701034546 0.17817753553390503 -0.2541120648384094 0.181691512465477 -10.229745864868164 0.8333186507225037 0.22075781226158142 -0.06562655419111252 0.14439216256141663 -0.15459513664245605 -2.0653510093688965 -0.7415327429771423 0.11327273398637772 0.17075255513191223 0.017355987802147865 0.04840550944209099 -6.056146144866943 8.851239204406738 -5.934565544128418 0.030355306342244148 32.0989990234375 2.1338789463043213 -8.884054183959961 -15.162647247314453 -34.629554748535156 -0.09737224131822586 0.1022186428308487 -0.19727833569049835 77.82416534423828 -59.464046478271484 67.90103912353516 3.1784794330596924 74.97759246826172 -2.6745309829711914 -0.28186139464378357 -1.6118003129959106 -4.74884557723999
-8.938920544460416 54.94388937950134 -90.34829558804631 -16.235641479492188 -26.374095916748047 13.68685245513916 9.820221900939941 9.80195140838623 3.5585744380950928 0.665612518787384 -7.5939764976501465 1.03365957736969 -1.1135985851287842 11.191143035888672 6.077511310577393 5.958866596221924 -22.279640197753906 13.301493644714355 0.3511658012866974 0.3304740786552429 0.0208098404109478 -0.18845492601394653 0.1167420819401741 0.002360846381634474 0.1429765522480011 -0.20749756693840027 -0.08596963435411453 109.12786102294922 46.535457611083984 -58.880775451660156 -26.248735427856445 -45.220645904541016 94.33698272705078 -13.618178367614746 -67.4084701538086 -20.141496658325195 -0.130082905292511 0.12554210424423218 -0.11412329971790314 -0.1369113326072693 -0.25754064321517944 0.004188119899481535 -0.07864975184202194 0.08122807741165161 -0.0033780846279114485 7.69018030166626 5.376535892486572 0.30957940220832825 -0.24616141617298126 0.04001177102327347 0.037934787571430206 2.8402395248413086 0.8939557671546936 0.08201105147600174 -0.21966367959976196 -0.11142341047525406 0.06343148648738861 10.091477394104004 0.830362856388092 0.1059662327170372 0.1605965942144394 -0.07034409791231155 0.1515640765428543 2.116575002670288 -0.7780791521072388 -0.3169516324996948 -0.012249310500919819 -0.08164569735527039 0.014616924338042736 -65.33809661865234 -19.700246810913086 -83.72227478027344 8.141366958618164 -3.3450429439544678 -14.05270767211914 6.5126752853393555 56.6574821472168 -12.3177490234375 0.18314220011234283 -0.04900373890995979 0.10505999624729156 -0.09056304395198822 -0.0626838356256485 -0.04133825749158859 -0.051573462784290314 0.12906961143016815 0.0488487184047699 -7.9182353019714355 5.7300286293029785 -0.1706257462501526 0.09042462706565857 0.11631745100021362 -0.03323393315076828 -3.0524275302886963 0.9727945327758789 -0.23783253133296967 0.2129991501569748 -0.2265021651983261 0.19304259121418 -10.199488639831543 0.8372944593429565 0.22037990391254425 -0.029708363115787506 0.13697722554206848 -0.11550748348236084 -2.083993434906006 -0.753063440322876 0.10668469220399857 0.12844741344451904 -0.00926954299211502 0.05341880023479462 -5.918757438659668 8.212430953979492 -5.9864821434021 0.040271859616041183 32.9001350402832 2.154839515686035 -8.932941436767578 -15.411614418029785 -34.227561950683594 -0.0862501710653305 0.08960917592048645 -0.22331945598125458 76.80488586425781 -59.675968170166016 66.83415222167969 3.126035213470459 74.50404357910156 -2.616241931915283 -0.28969481587409973 -1.3244104385375977 -4.617753505706787
-9.328103018924594 55.110710859298706 -90.56879156269133 -16.156471252441406 -25.766681671142578 13.47601318359375 9.639036178588867 9.738738059997559 3.412651777267456 0.7286242246627808 -7.581840991973877 1.0135222673416138 -1.0930583477020264 11.21802043914795 6.141289234161377 5.891312599182129 -22.29624366760254 13.278149604797363 0.3402513265609741 0.3366679847240448 0.004624384921044111 -0.19655844569206238 0.13257355988025665 -0.006147946231067181 0.11658365279436111 -0.18774797022342682 -0.07259135693311691 108.8049087524414 46.88837432861328 -58.64799499511719 -26.299928665161133 -45.078941345214844 94.02136993408203 -14.254756927490234 -67.99488830566406 -20.850265502929688 -0.12051217257976532 0.14293904602527618 -0.1504257768392563 -0.14902488887310028 -0.2753279507160187 0.03370938077569008 -0.07158543914556503 0.10995795577764511 0.005156031809747219 7.7098307609558105 5.3700995445251465 0.3061312437057495 -0.20995061099529266 0.0767558217048645 0.03032742254436016 2.852417469024658 0.9058562517166138 0.09039530903100967 -0.2072996348142624 -0.12744037806987762 0.07331757247447968 10.0952730178833 0.8382411599159241 0.07295248657464981 0.14875920116901398 -0.07502517849206924 0.15439975261688232 2.113215923309326 -0.7991823554039001 -0.31796881556510925 -0.00017549798940308392 -0.08994998782873154 -0.014317254535853863 -65.3063735961914 -19.59311866760254 -83.13275146484375 8.104082107543945 -3.3305399417877197 -13.983195304870605 6.643346786499023 57.058631896972656 -12.428633689880371 0.21651658415794373 -0.05543575808405876 0.09368792176246643 -0.08857452124357224 -0.06478957086801529 -0.05723137408494949 -0.0627104789018631 0.12234709411859512 0.03254757821559906 -7.91015100479126 5.729777812957764 -0.17449450492858887 0.10999435186386108 0.15247997641563416 -0.008001650683581829 -3.0437169075012207 0.9579363465309143 -0.21711194515228271 0.22708776593208313 -0.203547403216362 0.20022831857204437 -10.17640495300293 0.8344939947128296 0.22365088760852814 -0.0008042927947826684 0.11695117503404617 -0.08230965584516525 -2.0873823165893555 -0.7594770789146423 0.0926646888256073 0.08841913193464279 -0.017268940806388855 0.06366760283708572 -5.760683059692383 7.521596908569336 -6.06190299987793 0.04093685746192932 33.62617492675781 2.170900344848633 -8.982593536376953 -15.629608154296875 -33.85451126098633 -0.08232967555522919 0.07846511155366898 -0.2562711536884308 75.58968353271484 -59.8218879699707 65.60330200195312 3.0278661251068115 73.81818389892578 -2.5228164196014404 -0.2616463899612427 -0.9639003872871399 -4.367987155914307
